<svg width="18" height="21" viewBox="0 0 18 21" fill="none" xmlns="http://www.w3.org/2000/svg">
<path d="M16.5 13.25V10.625C16.5 8.76104 14.989 7.25 13.125 7.25H11.625C11.0037 7.25 10.5 6.74632 10.5 6.125V4.625C10.5 2.76104 8.98896 1.25 7.125 1.25H5.25M10.4812 14.7312L12 16.25M7.5 1.25H2.625C2.00368 1.25 1.5 1.75368 1.5 2.375V18.875C1.5 19.4963 2.00368 20 2.625 20H15.375C15.9963 20 16.5 19.4963 16.5 18.875V10.25C16.5 5.27944 12.4706 1.25 7.5 1.25ZM11.25 12.875C11.25 14.3247 10.0747 15.5 8.625 15.5C7.17525 15.5 6 14.3247 6 12.875C6 11.4253 7.17525 10.25 8.625 10.25C10.0747 10.25 11.25 11.4253 11.25 12.875Z" stroke="#7F7F7F" stroke-width="1.5" stroke-linecap="round" stroke-linejoin="round"/>
</svg>
