<svg width="22" height="21" viewBox="0 0 22 21" fill="none" xmlns="http://www.w3.org/2000/svg">
<path d="M3.5 4.875C3.5 2.59683 5.34683 0.75 7.625 0.75C9.90317 0.75 11.75 2.59683 11.75 4.875C11.75 7.15317 9.90317 9 7.625 9C5.34683 9 3.5 7.15317 3.5 4.875Z" fill="#7F7F7F"/>
<path d="M13.25 7.125C13.25 5.26104 14.761 3.75 16.625 3.75C18.489 3.75 20 5.26104 20 7.125C20 8.98896 18.489 10.5 16.625 10.5C14.761 10.5 13.25 8.98896 13.25 7.125Z" fill="#7F7F7F"/>
<path d="M0.5 17.625C0.5 13.69 3.68997 10.5 7.625 10.5C11.56 10.5 14.75 13.69 14.75 17.625V17.6276C14.75 17.6674 14.7496 17.7074 14.749 17.7469C14.7446 18.0054 14.6074 18.2435 14.3859 18.3768C12.4107 19.5661 10.0966 20.25 7.625 20.25C5.15343 20.25 2.8393 19.5661 0.864061 18.3768C0.642563 18.2435 0.505373 18.0054 0.501026 17.7469C0.500345 17.7064 0.5 17.6657 0.5 17.625Z" fill="#7F7F7F"/>
<path d="M16.2498 17.6281C16.2498 17.6762 16.2494 17.7244 16.2486 17.7722C16.2429 18.1108 16.1612 18.4378 16.0157 18.732C16.2172 18.7439 16.4203 18.75 16.6248 18.75C18.2205 18.75 19.732 18.3803 21.0764 17.7213C21.3234 17.6002 21.4843 17.3536 21.4957 17.0787C21.4984 17.0111 21.4998 16.9432 21.4998 16.875C21.4998 14.1826 19.3172 12 16.6248 12C15.8784 12 15.1711 12.1678 14.5387 12.4676C15.6135 13.9061 16.2498 15.6912 16.2498 17.625V17.6281Z" fill="#7F7F7F"/>
</svg>
